<svg width="292" height="60" viewBox="0 0 292 60" fill="none" xmlns="http://www.w3.org/2000/svg">
<rect width="60" height="60" rx="12" fill="#14FFAE"/>
<path d="M16.0158 17.3996L29.8926 32.3578L29.9102 44.4423L16.0334 29.4841L16.0158 17.3996Z" fill="black"/>
<path d="M30.5498 14.6312L44.4266 29.5894L44.4442 41.6739L30.5674 26.7157L30.5498 14.6312Z" fill="black"/>
<path d="M87.6591 47L91.1705 37.1136H105.284L108.795 47H113.227L100.409 12.0909H96.0455L83.2273 47H87.6591ZM92.5 33.3636L98.0909 17.6136H98.3636L103.955 33.3636H92.5ZM122.142 31.25C122.142 26.6818 124.972 24.0909 128.824 24.0909C132.557 24.0909 134.824 26.5284 134.824 30.6364V47H138.847V30.3636C138.847 23.6818 135.284 20.4773 129.983 20.4773C126.028 20.4773 123.574 22.25 122.347 24.9091H122.006V20.8182H118.119V47H122.142V31.25ZM147.851 56.75C151.482 56.75 154.055 54.8239 155.555 50.8182L166.703 20.8864L162.305 20.8182L155.078 41.6818H154.805L147.578 20.8182H143.214L152.896 47.1364L152.146 49.1818C150.714 53.1023 148.874 53.4773 145.942 52.7273L144.919 56.2727C145.328 56.4773 146.487 56.75 147.851 56.75ZM172.026 47H176.048V30.6364C176.048 26.8011 178.844 24.0909 181.98 24.0909C185.031 24.0909 187.162 26.0852 187.162 29.0682V47H191.253V29.9545C191.253 26.5795 193.366 24.0909 197.048 24.0909C199.912 24.0909 202.366 25.608 202.366 29.4773V47H206.389V29.4773C206.389 23.3239 203.082 20.4773 198.412 20.4773C194.662 20.4773 191.918 22.1989 190.571 24.9091H190.298C189.003 22.1136 186.719 20.4773 183.276 20.4773C179.866 20.4773 177.344 22.1136 176.253 24.9091H175.912V20.8182H172.026V47ZM224.381 47.5455C231.472 47.5455 236.244 42.1591 236.244 34.0455C236.244 25.8636 231.472 20.4773 224.381 20.4773C217.29 20.4773 212.517 25.8636 212.517 34.0455C212.517 42.1591 217.29 47.5455 224.381 47.5455ZM224.381 43.9318C218.994 43.9318 216.54 39.2955 216.54 34.0455C216.54 28.7955 218.994 24.0909 224.381 24.0909C229.767 24.0909 232.222 28.7955 232.222 34.0455C232.222 39.2955 229.767 43.9318 224.381 43.9318ZM253.021 47.5455C258.817 47.5455 262.635 44 263.317 39.3636H259.294C258.544 42.2273 256.158 43.9318 253.021 43.9318C248.249 43.9318 245.18 39.9773 245.18 33.9091C245.18 27.9773 248.317 24.0909 253.021 24.0909C256.567 24.0909 258.68 26.2727 259.294 28.6591H263.317C262.635 23.75 258.476 20.4773 252.953 20.4773C245.862 20.4773 241.158 26.0682 241.158 34.0455C241.158 41.8864 245.658 47.5455 253.021 47.5455ZM269.197 47H273.22V37.1989L276.033 34.5909L285.834 47H290.947L279.067 32L290.129 20.8182H285.152L273.697 32.4773H273.22V12.0909H269.197V47Z" fill="white"/>
</svg>
