<svg width="581" height="176" viewBox="0 0 581 176" fill="none" xmlns="http://www.w3.org/2000/svg">
<path d="M77.616 143V68.552H57.168V107.576C57.168 115.16 55.92 120.632 53.424 123.992C50.928 127.256 46.896 128.888 41.328 128.888C36.432 128.888 33.024 127.4 31.104 124.424C29.184 121.352 28.224 116.744 28.224 110.6V68.552H7.776V114.344C7.776 118.952 8.16 123.176 8.928 127.016C9.792 130.76 11.232 133.976 13.248 136.664C15.264 139.256 18 141.272 21.456 142.712C25.008 144.152 29.52 144.872 34.992 144.872C39.312 144.872 43.536 143.912 47.664 141.992C51.792 140.072 55.152 136.952 57.744 132.632H58.176V143H77.616ZM124.959 129.608C121.695 129.608 118.911 128.936 116.607 127.592C114.303 126.248 112.431 124.52 110.991 122.408C109.647 120.2 108.639 117.656 107.967 114.776C107.391 111.896 107.103 108.968 107.103 105.992C107.103 102.92 107.391 99.944 107.967 97.064C108.543 94.184 109.503 91.64 110.847 89.432C112.287 87.224 114.111 85.448 116.319 84.104C118.623 82.664 121.455 81.944 124.815 81.944C128.079 81.944 130.815 82.664 133.023 84.104C135.327 85.448 137.199 87.272 138.639 89.576C140.079 91.784 141.087 94.328 141.663 97.208C142.335 100.088 142.671 103.016 142.671 105.992C142.671 108.968 142.383 111.896 141.807 114.776C141.231 117.656 140.223 120.2 138.783 122.408C137.439 124.52 135.615 126.248 133.311 127.592C131.103 128.936 128.319 129.608 124.959 129.608ZM87.3754 68.552V169.064H107.823V133.784H108.111C110.607 137.432 113.775 140.216 117.615 142.136C121.551 143.96 125.823 144.872 130.431 144.872C135.903 144.872 140.655 143.816 144.687 141.704C148.815 139.592 152.223 136.76 154.911 133.208C157.695 129.656 159.759 125.576 161.103 120.968C162.447 116.36 163.119 111.56 163.119 106.568C163.119 101.288 162.447 96.248 161.103 91.448C159.759 86.552 157.695 82.28 154.911 78.632C152.127 74.984 148.623 72.056 144.399 69.848C140.175 67.64 135.135 66.536 129.279 66.536C124.671 66.536 120.447 67.448 116.607 69.272C112.767 71.096 109.599 74.024 107.103 78.056H106.815V68.552H87.3754ZM170.223 68.552V143H190.671V99.8C190.671 96.152 191.199 93.224 192.255 91.016C193.311 88.712 194.559 86.984 195.999 85.832C197.535 84.584 199.071 83.768 200.607 83.384C202.239 82.904 203.535 82.664 204.495 82.664C207.759 82.664 210.207 83.24 211.839 84.392C213.567 85.448 214.767 86.888 215.439 88.712C216.207 90.536 216.639 92.552 216.735 94.76C216.831 96.872 216.879 99.032 216.879 101.24V143H237.327V101.528C237.327 99.224 237.471 96.968 237.759 94.76C238.143 92.456 238.815 90.44 239.775 88.712C240.831 86.888 242.223 85.448 243.951 84.392C245.775 83.24 248.127 82.664 251.007 82.664C253.887 82.664 256.143 83.144 257.775 84.104C259.503 85.064 260.799 86.36 261.663 87.992C262.527 89.624 263.055 91.544 263.247 93.752C263.439 95.96 263.535 98.312 263.535 100.808V143H283.983V93.176C283.983 88.376 283.311 84.296 281.967 80.936C280.623 77.48 278.751 74.696 276.351 72.584C273.951 70.472 271.071 68.936 267.711 67.976C264.351 67.016 260.703 66.536 256.767 66.536C251.583 66.536 247.071 67.784 243.231 70.28C239.487 72.776 236.511 75.656 234.303 78.92C232.287 74.312 229.311 71.096 225.375 69.272C221.535 67.448 217.263 66.536 212.559 66.536C207.663 66.536 203.295 67.592 199.455 69.704C195.711 71.816 192.495 74.792 189.807 78.632H189.519V68.552H170.223ZM312.531 105.848C312.531 102.872 312.819 99.944 313.395 97.064C313.971 94.184 314.931 91.64 316.275 89.432C317.715 87.224 319.587 85.448 321.891 84.104C324.195 82.664 327.075 81.944 330.531 81.944C333.987 81.944 336.867 82.664 339.171 84.104C341.571 85.448 343.443 87.224 344.787 89.432C346.227 91.64 347.235 94.184 347.811 97.064C348.387 99.944 348.675 102.872 348.675 105.848C348.675 108.824 348.387 111.752 347.811 114.632C347.235 117.416 346.227 119.96 344.787 122.264C343.443 124.472 341.571 126.248 339.171 127.592C336.867 128.936 333.987 129.608 330.531 129.608C327.075 129.608 324.195 128.936 321.891 127.592C319.587 126.248 317.715 124.472 316.275 122.264C314.931 119.96 313.971 117.416 313.395 114.632C312.819 111.752 312.531 108.824 312.531 105.848ZM292.083 105.848C292.083 111.8 292.995 117.176 294.819 121.976C296.643 126.776 299.235 130.904 302.595 134.36C305.955 137.72 309.987 140.312 314.691 142.136C319.395 143.96 324.675 144.872 330.531 144.872C336.387 144.872 341.667 143.96 346.371 142.136C351.171 140.312 355.251 137.72 358.611 134.36C361.971 130.904 364.563 126.776 366.387 121.976C368.211 117.176 369.123 111.8 369.123 105.848C369.123 99.896 368.211 94.52 366.387 89.72C364.563 84.824 361.971 80.696 358.611 77.336C355.251 73.88 351.171 71.24 346.371 69.416C341.667 67.496 336.387 66.536 330.531 66.536C324.675 66.536 319.395 67.496 314.691 69.416C309.987 71.24 305.955 73.88 302.595 77.336C299.235 80.696 296.643 84.824 294.819 89.72C292.995 94.52 292.083 99.896 292.083 105.848ZM427.346 94.76H447.362C447.074 89.96 445.922 85.832 443.906 82.376C441.89 78.824 439.25 75.896 435.986 73.592C432.818 71.192 429.17 69.416 425.042 68.264C421.01 67.112 416.786 66.536 412.37 66.536C406.322 66.536 400.946 67.544 396.242 69.56C391.538 71.576 387.554 74.408 384.29 78.056C381.026 81.608 378.53 85.88 376.802 90.872C375.17 95.768 374.354 101.096 374.354 106.856C374.354 112.424 375.266 117.56 377.09 122.264C378.914 126.872 381.458 130.856 384.722 134.216C387.986 137.576 391.922 140.216 396.53 142.136C401.234 143.96 406.37 144.872 411.938 144.872C421.826 144.872 429.938 142.28 436.274 137.096C442.61 131.912 446.45 124.376 447.794 114.488H428.066C427.394 119.096 425.714 122.792 423.026 125.576C420.434 128.264 416.69 129.608 411.794 129.608C408.626 129.608 405.938 128.888 403.73 127.448C401.522 126.008 399.746 124.184 398.402 121.976C397.154 119.672 396.242 117.128 395.666 114.344C395.09 111.56 394.802 108.824 394.802 106.136C394.802 103.352 395.09 100.568 395.666 97.784C396.242 94.904 397.202 92.312 398.546 90.008C399.986 87.608 401.81 85.688 404.018 84.248C406.226 82.712 408.962 81.944 412.226 81.944C420.962 81.944 426.002 86.216 427.346 94.76ZM455.457 40.184V143H475.905V117.368L483.825 109.736L504.273 143H529.041L497.793 95.912L525.873 68.552H501.681L475.905 95.336V40.184H455.457Z" fill="url(#paint0_linear)"/>
<path d="M548.64 120.824V143H571.248V120.824H548.64Z" fill="#FED330"/>
<defs>
<linearGradient id="paint0_linear" x1="408.126" y1="219" x2="56.0521" y2="33.4663" gradientUnits="userSpaceOnUse">
<stop stop-color="#FED330"/>
<stop offset="1" stop-color="#38F9D7"/>
</linearGradient>
</defs>
</svg>
