<svg width="512" height="512" viewBox="0 0 512 512" fill="none" xmlns="http://www.w3.org/2000/svg">
<path d="M448 64H64C46.3269 64 32 78.3269 32 96V352C32 369.673 46.3269 384 64 384H448C465.673 384 480 369.673 480 352V96C480 78.3269 465.673 64 448 64Z" stroke="white" stroke-width="32" stroke-linejoin="round"/>
<path d="M304 448L296 384H216L208 448H304Z" fill="white" stroke="white" stroke-width="32" stroke-linecap="round" stroke-linejoin="round"/>
<path d="M368 448H144" stroke="white" stroke-width="32" stroke-linecap="round" stroke-linejoin="round"/>
<path d="M32 304V352C32.0237 360.48 35.4028 368.605 41.3988 374.601C47.3948 380.597 55.5204 383.976 64 384H448C456.48 383.976 464.605 380.597 470.601 374.601C476.597 368.605 479.976 360.48 480 352V304H32ZM256 368C252.835 368 249.742 367.062 247.111 365.304C244.48 363.545 242.429 361.047 241.218 358.123C240.007 355.199 239.69 351.982 240.307 348.879C240.925 345.775 242.449 342.924 244.686 340.686C246.924 338.449 249.775 336.925 252.879 336.307C255.982 335.69 259.199 336.007 262.123 337.218C265.047 338.429 267.545 340.48 269.304 343.111C271.062 345.742 272 348.835 272 352C272 356.243 270.314 360.313 267.314 363.314C264.313 366.314 260.243 368 256 368Z" fill="white"/>
</svg>
