<svg width="167" height="112" viewBox="0 0 167 112" fill="none" xmlns="http://www.w3.org/2000/svg">
<path fill-rule="evenodd" clip-rule="evenodd" d="M20.2371 85.9804V8.26288H146.103V85.9804H20.2371ZM12.2371 6.26288C12.2371 2.94917 14.9234 0.262878 18.2371 0.262878H148.103C151.417 0.262878 154.103 2.94917 154.103 6.26288V87.9804C154.103 91.2941 151.417 93.9804 148.103 93.9804H18.2371C14.9234 93.9804 12.2371 91.2941 12.2371 87.9804V6.26288ZM4.2 103.737C1.99086 103.737 0.199997 105.528 0.199997 107.737C0.199997 109.946 1.99086 111.737 4.2 111.737H163C165.209 111.737 167 109.946 167 107.737C167 105.528 165.209 103.737 163 103.737H4.2Z" fill="white"/>
</svg>
