<svg width="77" height="116" viewBox="0 0 77 116" fill="none" xmlns="http://www.w3.org/2000/svg">
<path fill-rule="evenodd" clip-rule="evenodd" d="M58.7931 0H18.1034C8.16232 0 0.103447 8.05888 0.103447 18V98C0.103447 107.941 8.16231 116 18.1034 116H58.7931C68.7342 116 76.7931 107.941 76.7931 98V18C76.7931 8.05888 68.7342 0 58.7931 0ZM8.10345 18C8.10345 12.4772 12.5806 8 18.1034 8H58.7931C64.316 8 68.7931 12.4772 68.7931 18V98C68.7931 103.523 64.3159 108 58.7931 108H18.1034C12.5806 108 8.10345 103.523 8.10345 98V18ZM54.9903 8.04909H21C21 8.04909 23.0192 8.04907 23.0192 9.37422V10.6992C23.0192 13.6267 24.8273 16 27.0577 16H49.9423C52.1727 16 53.9808 13.6261 53.9808 10.6986V9.37422C53.9808 8.49082 54.4855 8.15952 54.9903 8.04909ZM54.9903 8.04909H56C56 8.04909 55.4952 7.93864 54.9903 8.04909Z" fill="white"/>
</svg>
