<svg width="106" height="125" viewBox="0 0 106 125" fill="none" xmlns="http://www.w3.org/2000/svg">
<path fill-rule="evenodd" clip-rule="evenodd" d="M10.5 0.5C4.97715 0.5 0.5 4.97715 0.5 10.5V114.5C0.5 120.023 4.97715 124.5 10.5 124.5H95.5C101.023 124.5 105.5 120.023 105.5 114.5V10.5C105.5 4.97715 101.023 0.5 95.5 0.5H10.5ZM8.5 10.5C8.5 9.39543 9.39543 8.5 10.5 8.5H95.5C96.6046 8.5 97.5 9.39543 97.5 10.5V106.5H8.5V10.5ZM56.5 112.5C56.5 114.157 55.1569 115.5 53.5 115.5C51.8431 115.5 50.5 114.157 50.5 112.5C50.5 110.843 51.8431 109.5 53.5 109.5C55.1569 109.5 56.5 110.843 56.5 112.5Z" fill="white"/>
</svg>
