<svg width="67" height="122" viewBox="0 0 67 122" fill="none" xmlns="http://www.w3.org/2000/svg">
<path fill-rule="evenodd" clip-rule="evenodd" d="M18.4906 6C18.4906 2.6863 21.1769 0 24.4906 0H43.1369C46.4506 0 49.1369 2.68629 49.1369 6V16.4176H18.4906V6ZM14.64 24.2682H52.9874C60.7194 24.2682 66.9874 30.5362 66.9874 38.2682V83.1828C66.9874 90.9147 60.7194 97.1828 52.9874 97.1828H14.64C6.90803 97.1828 0.639999 90.9147 0.639999 83.1828V38.2682C0.639999 30.5362 6.90802 24.2682 14.64 24.2682ZM14.64 32.2682C11.3263 32.2682 8.64 34.9545 8.64 38.2682V83.1828C8.64 86.4965 11.3263 89.1828 14.64 89.1828H52.9874C56.3012 89.1828 58.9874 86.4965 58.9874 83.1828V38.2682C58.9874 34.9545 56.3012 32.2682 52.9874 32.2682H14.64ZM43.1369 121.451C46.4506 121.451 49.1369 118.765 49.1369 115.451V105.033H18.4906V115.451C18.4906 118.765 21.1769 121.451 24.4906 121.451H43.1369Z" fill="white"/>
</svg>
