<svg width="512" height="512" viewBox="0 0 512 512" fill="none" xmlns="http://www.w3.org/2000/svg">
<title>twitter</title>
<path d="M496 109.5C477.995 117.324 458.944 122.478 439.45 124.8C459.937 112.804 475.343 93.7457 482.78 71.2C463.411 82.526 442.256 90.4728 420.22 94.7C410.941 84.9753 399.781 77.2391 387.419 71.9615C375.057 66.6839 361.751 63.9752 348.31 64C293.89 64 249.85 107.4 249.85 160.9C249.811 168.342 250.664 175.761 252.39 183C213.367 181.171 175.155 171.216 140.2 153.773C105.244 136.329 74.3149 111.782 49.39 81.7C40.6457 96.4412 36.0213 113.26 36 130.4C36 164 53.53 193.7 80 211.1C64.3173 210.728 48.9559 206.577 35.22 199V200.2C35.22 247.2 69.22 286.3 114.22 295.2C105.758 297.456 97.0377 298.599 88.28 298.6C82.0658 298.611 75.8657 298.008 69.77 296.8C82.28 335.3 118.69 363.3 161.82 364.1C126.774 391.109 83.7462 405.707 39.5 405.6C31.6462 405.588 23.7997 405.121 16 404.2C61.0118 432.942 113.334 448.145 166.74 448C348.1 448 447.18 300.3 447.18 172.2C447.18 168 447.07 163.8 446.87 159.7C466.101 146.021 482.738 129.021 496 109.5Z" fill="white"/>
</svg>
