<svg width="512" height="512" viewBox="0 0 512 512" fill="none" xmlns="http://www.w3.org/2000/svg">
<path d="M85.57 446.25H426.43C431.966 446.249 437.407 444.812 442.222 442.079C447.036 439.346 451.059 435.41 453.898 430.657C456.736 425.904 458.293 420.496 458.416 414.961C458.539 409.427 457.224 403.955 454.6 399.08L284.18 82.58C272.09 60.14 239.91 60.14 227.82 82.58L57.4 399.08C54.7755 403.955 53.4606 409.427 53.5836 414.961C53.7067 420.496 55.2635 425.904 58.1021 430.657C60.9406 435.41 64.9637 439.346 69.7782 442.079C74.5927 444.812 80.0339 446.249 85.57 446.25V446.25Z" stroke="#FFD32A" stroke-width="32" stroke-linecap="round" stroke-linejoin="round"/>
<path d="M250.26 195.39L256 317.39L261.73 195.44C261.765 194.66 261.641 193.882 261.366 193.152C261.09 192.422 260.668 191.755 260.126 191.194C259.584 190.632 258.934 190.187 258.214 189.886C257.494 189.584 256.72 189.432 255.94 189.44V189.44C255.173 189.448 254.416 189.609 253.712 189.914C253.009 190.219 252.374 190.662 251.844 191.216C251.315 191.771 250.902 192.426 250.63 193.143C250.358 193.86 250.232 194.624 250.26 195.39V195.39Z" stroke="#FFD32A" stroke-width="32" stroke-linecap="round" stroke-linejoin="round"/>
<path d="M256 397.25C252.044 397.25 248.178 396.077 244.889 393.879C241.6 391.682 239.036 388.558 237.522 384.904C236.009 381.249 235.613 377.228 236.384 373.348C237.156 369.469 239.061 365.905 241.858 363.108C244.655 360.311 248.219 358.406 252.098 357.634C255.978 356.863 259.999 357.259 263.654 358.772C267.308 360.286 270.432 362.85 272.629 366.139C274.827 369.428 276 373.294 276 377.25C276 382.554 273.893 387.641 270.142 391.392C266.391 395.143 261.304 397.25 256 397.25Z" fill="#FFD32A"/>
</svg>
